<?xml version="1.0" encoding="UTF-8" standalone="no"?>
<!-- Created with Inkscape (http://www.inkscape.org/) -->

<svg
   xmlns:dc="http://purl.org/dc/elements/1.1/"
   xmlns:cc="http://creativecommons.org/ns#"
   xmlns:rdf="http://www.w3.org/1999/02/22-rdf-syntax-ns#"
   xmlns:svg="http://www.w3.org/2000/svg"
   xmlns="http://www.w3.org/2000/svg"
   xmlns:xlink="http://www.w3.org/1999/xlink"
   xmlns:sodipodi="http://sodipodi.sourceforge.net/DTD/sodipodi-0.dtd"
   xmlns:inkscape="http://www.inkscape.org/namespaces/inkscape"
   width="48px"
   height="48px"
   id="svg1872"
   sodipodi:version="0.32"
   inkscape:version="0.48.1 r9760"
   sodipodi:docname="android-galaxy-lite.svg"
   inkscape:output_extension="org.inkscape.output.svg.inkscape"
   version="1.1">
  <defs
     id="defs1874">
    <linearGradient
       id="linearGradient3797">
      <stop
         style="stop-color:#888a85;stop-opacity:1"
         offset="0"
         id="stop3799" />
      <stop
         id="stop3801"
         offset="0.06219264"
         style="stop-color:#484946;stop-opacity:1;" />
      <stop
         style="stop-color:#484946;stop-opacity:1;"
         offset="0.9215703"
         id="stop3803" />
      <stop
         style="stop-color:#888a85;stop-opacity:1"
         offset="1"
         id="stop3805" />
    </linearGradient>
    <linearGradient
       inkscape:collect="always"
       id="linearGradient19278">
      <stop
         style="stop-color:#000000;stop-opacity:1;"
         offset="0"
         id="stop19280" />
      <stop
         style="stop-color:#000000;stop-opacity:0;"
         offset="1"
         id="stop19282" />
    </linearGradient>
    <radialGradient
       inkscape:collect="always"
       xlink:href="#linearGradient19278"
       id="radialGradient2932"
       gradientUnits="userSpaceOnUse"
       gradientTransform="scale(1.357519,0.736638)"
       cx="17.579761"
       cy="47.402553"
       fx="17.579761"
       fy="47.402553"
       r="16.798437" />
    <linearGradient
       inkscape:collect="always"
       xlink:href="#linearGradient3797"
       id="linearGradient2985"
       gradientUnits="userSpaceOnUse"
       gradientTransform="matrix(0.923077,0,0,0.9326857,2.37103,1.0623972)"
       x1="14.566609"
       y1="41.985664"
       x2="34.492065"
       y2="41.985664" />
  </defs>
  <sodipodi:namedview
     id="base"
     pagecolor="#ffffff"
     bordercolor="#666666"
     borderopacity="1.0"
     inkscape:pageopacity="0.0"
     inkscape:pageshadow="2"
     inkscape:zoom="15.999999"
     inkscape:cx="15.328047"
     inkscape:cy="25.143495"
     inkscape:current-layer="layer1"
     showgrid="true"
     inkscape:grid-bbox="true"
     inkscape:document-units="px"
     showguides="true"
     inkscape:window-width="1864"
     inkscape:window-height="1056"
     inkscape:window-x="56"
     inkscape:window-y="24"
     inkscape:snap-midpoints="false"
     inkscape:object-paths="false"
     inkscape:snap-intersection-paths="false"
     inkscape:object-nodes="true"
     inkscape:snap-smooth-nodes="false"
     inkscape:guide-bbox="true"
     inkscape:window-maximized="1"
     inkscape:snap-grids="false"
     inkscape:snap-to-guides="false"
     inkscape:snap-global="true">
    <inkscape:grid
       type="xygrid"
       id="grid2958" />
  </sodipodi:namedview>
  <metadata
     id="metadata1877">
    <rdf:RDF>
      <cc:Work
         rdf:about="">
        <dc:format>image/svg+xml</dc:format>
        <dc:type
           rdf:resource="http://purl.org/dc/dcmitype/StillImage" />
        <cc:license
           rdf:resource="http://creativecommons.org/licenses/GPL/2.0/" />
        <dc:title />
        <dc:date>December 2007</dc:date>
        <dc:creator>
          <cc:Agent>
            <dc:title>Philipp Zabel</dc:title>
          </cc:Agent>
        </dc:creator>
        <dc:subject>
          <rdf:Bag>
            <rdf:li>device</rdf:li>
            <rdf:li>phone</rdf:li>
            <rdf:li>magician</rdf:li>
          </rdf:Bag>
        </dc:subject>
      </cc:Work>
      <cc:License
         rdf:about="http://creativecommons.org/licenses/GPL/2.0/">
        <cc:permits
           rdf:resource="http://web.resource.org/cc/Reproduction" />
        <cc:permits
           rdf:resource="http://web.resource.org/cc/Distribution" />
        <cc:requires
           rdf:resource="http://web.resource.org/cc/Notice" />
        <cc:permits
           rdf:resource="http://web.resource.org/cc/DerivativeWorks" />
        <cc:requires
           rdf:resource="http://web.resource.org/cc/ShareAlike" />
        <cc:requires
           rdf:resource="http://web.resource.org/cc/SourceCode" />
      </cc:License>
    </rdf:RDF>
  </metadata>
  <g
     id="layer1"
     inkscape:label="Layer 1"
     inkscape:groupmode="layer">
    <path
       transform="matrix(0.7236669,0,0,0.3484516,7.8155804,31.520715)"
       d="m 46.669048,34.918526 a 22.804193,12.374369 0 1 1 -45.6083867,0 22.804193,12.374369 0 1 1 45.6083867,0 z"
       sodipodi:ry="12.374369"
       sodipodi:rx="22.804193"
       sodipodi:cy="34.918526"
       sodipodi:cx="23.864855"
       id="path2896"
       style="opacity:0.5;color:#000000;fill:url(#radialGradient2932);fill-opacity:1;fill-rule:evenodd;stroke:none;stroke-width:4;marker:none;visibility:visible;display:inline;overflow:visible"
       sodipodi:type="arc" />
    <path
       style="fill:url(#linearGradient2985);fill-opacity:1;fill-rule:evenodd;stroke:#303030;stroke-width:1.00000012;stroke-linecap:butt;stroke-linejoin:miter;stroke-miterlimit:4;stroke-opacity:1"
       d="M 22.5,1.1875 C 21.628429,1.18299 20.772611,1.18387 19.96875,1.21875 14.366102,1.4637731 14.241931,4.0000227 14.25,5.5 l 0,32.9375 c 0,4 0.450916,6.03125 6.25,6.03125 l 4.5,0 4.5,0 c 5.79908,0 6.23169,-2.125 6.23169,-6.125 L 35.75539,5.5 c 0.008,-1.4999773 -0.12146,-4.0362269 -5.72411,-4.28125 -2.510703,-0.020439 -5.020363,0.00632 -7.53125,-0.03125 l -3e-5,0 z"
       id="path2951"
       sodipodi:nodetypes="cscccccccccc" />
    <path
       style="fill:#3465a4;fill-opacity:1;fill-rule:nonzero;stroke:#204a87;stroke-width:0.99999994;stroke-linecap:butt;stroke-linejoin:miter;stroke-miterlimit:4;stroke-opacity:1;stroke-dashoffset:0;display:inline"
       d="m 16.4375,8.5 17.125,0 0,26.109835 -17.125,0 0,-26.109835 z"
       id="rect2928"
       sodipodi:nodetypes="ccccc"
       inkscape:connector-curvature="0" />
    <path
       sodipodi:nodetypes="ccczccc"
       id="path2930"
       d="m 16.9375,9.0529646 16.10381,0 c 0,0 7.5e-4,6.0244184 0.0212,7.6958824 -0.94093,1.867354 -3.284885,2.64853 -6.731182,1.960443 -6.816991,-1.361078 -9.393777,5.13534 -9.393777,5.13534 l 0,-14.7916654 -5.1e-5,0 z"
       style="color:#000000;fill:#eeeeec;fill-opacity:0.16993462;fill-rule:evenodd;stroke:none;stroke-width:0.99999994;marker:none;visibility:visible;display:inline;overflow:visible" />
    <path
       style="fill:#303030;fill-opacity:1;stroke:#303030;stroke-width:1;stroke-linecap:round;stroke-miterlimit:4;stroke-opacity:1;stroke-dasharray:none;stroke-dashoffset:0"
       d="m 14,16.414208 c -0.588289,-1.678377 0.09354,-6.020459 0.09354,-6.020459"
       id="path3795"
       sodipodi:nodetypes="cc"
       inkscape:connector-curvature="0" />
    <path
       id="path3818"
       style="fill:none;stroke:#2e3436;stroke-width:1"
       d="m 14.27243,39.175912 c -0.04312,4.206886 2.439011,4.292838 10.722946,4.292838 8.283934,0 10.766044,-0.08595 10.722944,-4.292838"
       sodipodi:nodetypes="ccc" />
    <path
       sodipodi:nodetypes="cscccscccccc"
       id="path3816"
       d="m 22.5,1.5410377 c -0.871571,-0.00447 -1.727389,-0.0036 -2.53125,0.030995 C 14.366102,1.8150541 14.241931,4.3305866 14.25,5.8183115 l 0,32.6684545 c 0,3.967326 0.450916,5.872401 6.25,5.872401 0,0 2.999552,0.105931 4.5,0.109583 1.500285,0.0037 4.5,-0.08767 4.5,-0.08767 5.79908,0 6.23169,-2.107642 6.23169,-6.074969 l 0.0237,-32.4878015 c 0.008,-1.4877249 -0.12146,-4.0032574 -5.72411,-4.2462791 -2.510703,-0.020272 -5.020363,0.00627 -7.53125,-0.030995 l -3e-5,0 z"
       style="fill:none;stroke:#303030;stroke-width:1.00000012;stroke-linecap:butt;stroke-linejoin:miter;stroke-miterlimit:4;stroke-opacity:1"
       inkscape:connector-curvature="0" />
    <rect
       style="fill:#bf0000;fill-opacity:1;stroke:none"
       id="rect3824"
       width="6.0494366"
       height="1.0715454"
       x="22.013865"
       y="1.9829794" />
    <rect
       transform="matrix(0.70710678,-0.70710678,0.70710678,0.70710678,0,0)"
       style="fill:#383838;fill-opacity:1;stroke:none"
       id="rect3828"
       width="5.7637033"
       height="5.7053123"
       x="-12.789422"
       y="42.420616" />
    <rect
       y="43.124126"
       x="-12.078714"
       height="4.2982988"
       width="4.3422899"
       id="rect3842"
       style="fill:#bf0000;fill-opacity:1;stroke:none"
       transform="matrix(0.70710678,-0.70710678,0.70710678,0.70710678,0,0)" />
    <rect
       y="43.915573"
       x="-11.279169"
       height="2.7154086"
       width="2.7431996"
       id="rect3810"
       style="fill:#9b9b9b;fill-opacity:1;stroke:none"
       transform="matrix(0.70710678,-0.70710678,0.70710678,0.70710678,0,0)" />
    <rect
       y="9.0540476"
       x="17.019924"
       height="0.93896282"
       width="15.948932"
       id="rect3812"
       style="fill:#ffffff;fill-opacity:0.23529412;stroke:none" />
    <rect
       y="32.035019"
       x="21.969671"
       height="1.9996229"
       width="6.049437"
       id="rect3814"
       style="fill:#ffffff;fill-opacity:0.3137255;stroke:none" />
    <rect
       style="fill:#ffffff;fill-opacity:0.3137255;stroke:none"
       id="rect3830"
       width="1.983573"
       height="1.9996229"
       x="19.052856"
       y="27.880766" />
    <rect
       style="fill:#ffffff;fill-opacity:0.35744683;stroke:none"
       id="rect3832"
       width="1.983573"
       height="1.0621229"
       x="18.992195"
       y="36.003929" />
    <rect
       style="fill:#ffffff;fill-opacity:0.35744683;stroke:none"
       id="rect3834"
       width="1.983573"
       height="0.99962294"
       x="18.929695"
       y="40.003929" />
    <rect
       y="40.066807"
       x="29.071121"
       height="0.93712294"
       width="1.983573"
       id="rect3838"
       style="fill:#ffffff;fill-opacity:0.35744683;stroke:none" />
    <rect
       y="38.003929"
       x="33.054695"
       height="1.9996229"
       width="0.92107296"
       id="rect3840"
       style="fill:#ffffff;fill-opacity:0.35744683;stroke:none" />
    <rect
       style="fill:#ffffff;fill-opacity:0.35744683;stroke:none"
       id="rect3836"
       width="1.046073"
       height="1.9996229"
       x="15.992195"
       y="38.003929" />
    <rect
       y="36.004307"
       x="29.008621"
       height="0.99962294"
       width="1.983573"
       id="rect3816"
       style="fill:#ffffff;fill-opacity:0.35744683;stroke:none" />
    <rect
       y="27.880766"
       x="23.207109"
       height="1.9996229"
       width="1.983573"
       id="rect3818"
       style="fill:#ffffff;fill-opacity:0.3137255;stroke:none" />
    <rect
       y="27.880766"
       x="27.096195"
       height="1.9996229"
       width="1.983573"
       id="rect3820"
       style="fill:#ffffff;fill-opacity:0.3137255;stroke:none" />
    <rect
       y="23.991678"
       x="19.052856"
       height="1.9996229"
       width="1.983573"
       id="rect3822"
       style="fill:#ffffff;fill-opacity:0.3137255;stroke:none" />
    <path
       sodipodi:type="arc"
       style="fill:#ffffff;fill-opacity:0.3137255;stroke:none"
       id="path3826"
       sodipodi:cx="26.25"
       sodipodi:cy="15.9375"
       sodipodi:rx="3"
       sodipodi:ry="3"
       d="m 29.25,15.9375 a 3,3 0 1 1 -6,0 3,3 0 1 1 6,0 z"
       transform="translate(1.75,1.125)" />
  </g>
</svg>
