<?xml version="1.0" encoding="UTF-8" standalone="no"?>
<!-- Created with Inkscape (http://www.inkscape.org/) -->

<svg
   xmlns:dc="http://purl.org/dc/elements/1.1/"
   xmlns:cc="http://creativecommons.org/ns#"
   xmlns:rdf="http://www.w3.org/1999/02/22-rdf-syntax-ns#"
   xmlns:svg="http://www.w3.org/2000/svg"
   xmlns="http://www.w3.org/2000/svg"
   xmlns:xlink="http://www.w3.org/1999/xlink"
   xmlns:sodipodi="http://sodipodi.sourceforge.net/DTD/sodipodi-0.dtd"
   xmlns:inkscape="http://www.inkscape.org/namespaces/inkscape"
   width="48"
   height="48"
   id="svg2"
   version="1.1"
   inkscape:version="0.47 r22583"
   sodipodi:docname="New document 1">
  <defs
     id="defs4">
    <inkscape:perspective
       sodipodi:type="inkscape:persp3d"
       inkscape:vp_x="0 : 526.18109 : 1"
       inkscape:vp_y="0 : 1000 : 0"
       inkscape:vp_z="744.09448 : 526.18109 : 1"
       inkscape:persp3d-origin="372.04724 : 350.78739 : 1"
       id="perspective10" />
    <inkscape:perspective
       id="perspective2946"
       inkscape:persp3d-origin="0.5 : 0.33333333 : 1"
       inkscape:vp_z="1 : 0.5 : 1"
       inkscape:vp_y="0 : 1000 : 0"
       inkscape:vp_x="0 : 0.5 : 1"
       sodipodi:type="inkscape:persp3d" />
    <inkscape:perspective
       id="perspective3135"
       inkscape:persp3d-origin="222.5 : 20 : 1"
       inkscape:vp_z="445 : 30 : 1"
       inkscape:vp_y="0 : 1000 : 0"
       inkscape:vp_x="0 : 30 : 1"
       sodipodi:type="inkscape:persp3d" />
  </defs>
  <sodipodi:namedview
     id="base"
     pagecolor="#ffffff"
     bordercolor="#666666"
     borderopacity="1.0"
     inkscape:pageopacity="0.0"
     inkscape:pageshadow="2"
     inkscape:zoom="7.9195959"
     inkscape:cx="25.688267"
     inkscape:cy="21.842107"
     inkscape:document-units="px"
     inkscape:current-layer="layer1"
     showgrid="false"
     inkscape:window-width="715"
     inkscape:window-height="769"
     inkscape:window-x="529"
     inkscape:window-y="118"
     inkscape:window-maximized="0" />
  <metadata
     id="metadata7">
    <rdf:RDF>
      <cc:Work
         rdf:about="">
        <dc:format>image/svg+xml</dc:format>
        <dc:type
           rdf:resource="http://purl.org/dc/dcmitype/StillImage" />
        <dc:title></dc:title>
      </cc:Work>
    </rdf:RDF>
  </metadata>
  <g
     inkscape:label="Layer 1"
     inkscape:groupmode="layer"
     id="layer1"
     transform="translate(0,-1004.3622)">
    <image
       y="1004.4815"
       x="0.043325949"
       id="image2948"
       height="47.878807"
       width="47.878807"
       xlink:href="file:///home/dan/Projects/arista/presets/droid.png" />
    <g
       id="g2986">
      <path
         style="fill:#dee6de"
         d="m 0.04332595,1028.4209 0,-23.9394 23.93940305,0 23.939404,0 0,23.9394 0,23.9394 -23.939404,0 -23.93940305,0 0,-23.9394 z"
         id="path3002" />
      <path
         style="fill:#cce0a2"
         d="m 0.04332595,1028.4209 0,-23.9394 23.93940305,0 23.939404,0 0,23.9394 0,23.9394 -23.939404,0 -23.93940305,0 0,-23.9394 z m 5.90644615,21.0644 c 0.1092658,-0.1768 -0.061803,-0.4141 -0.3801523,-0.5273 -2.5065593,-0.8914 -2.0892352,-3.6199 0.5536759,-3.6199 1.4116281,0 1.5806394,0.2997 1.5806394,2.8031 0,1.249 0.1014073,1.6918 0.3341621,1.4591 0.1913011,-0.1913 0.2936468,-1.3444 0.2393941,-2.6972 l -0.094768,-2.363 -1.6400077,-0.095 c -1.3567539,-0.079 -1.7950311,0.038 -2.5375768,0.6768 -1.2508161,1.0759 -1.2589731,2.861 -0.017951,3.9285 0.9357613,0.8049 1.637859,0.9605 1.9625846,0.4351 z m 9.4147719,-1.144 c 0,-2.5317 -1.527853,-4.2874 -3.336097,-3.8336 -1.500833,0.3767 -2.0901676,1.2858 -2.0901676,3.2243 0,2.188 0.5039946,2.3089 0.7094966,0.1702 0.179466,-1.8677 0.662406,-2.5641 1.778192,-2.5641 1.318587,0 1.981,0.8526 1.981,2.5498 0,0.8213 0.09185,1.5851 0.204117,1.6974 0.408521,0.4085 0.753459,-0.161 0.753459,-1.244 z m 5.216452,1.1111 c 1.646156,-0.7501 1.917038,-2.7754 0.553558,-4.1389 -0.790156,-0.7901 -1.185232,-0.933 -2.580135,-0.933 -2.154659,0 -2.012664,0.7318 0.186905,0.9633 2.047693,0.2154 2.368677,0.4526 2.368677,1.7498 0,1.2973 -0.320984,1.5344 -2.368677,1.7499 -2.075199,0.2184 -2.37375,0.9633 -0.386074,0.9633 0.79637,0 1.797955,-0.1595 2.225746,-0.3544 z m 8.08821,-0.7852 c -0.101713,-0.6268 -0.05605,-1.4786 0.101473,-1.8929 0.219201,-0.5766 0.132367,-0.9492 -0.370064,-1.5879 -0.599076,-0.7616 -0.827872,-0.8263 -2.616976,-0.7404 -2.54212,0.122 -2.537994,0.7048 0.0059,0.8268 1.436833,0.069 2.018521,0.2302 2.160054,0.599 0.332813,0.8673 -0.436557,1.3474 -2.31758,1.4461 -2.357266,0.1237 -2.336443,0.7058 0.02966,0.8291 1.541651,0.08 1.92122,0.2221 2.350853,0.8778 0.703726,1.074 0.874005,0.9813 0.656725,-0.3576 z m 5.63705,0.7852 c 0.833033,-0.3796 1.486579,-1.5041 1.486579,-2.5579 0,-0.9149 -1.698823,-2.514 -2.670779,-2.514 -1.325359,0 -2.56397,1.3107 -2.56397,2.7131 0,0.9138 0.209764,1.3804 0.879618,1.9566 0.970556,0.8348 1.695859,0.9365 2.868552,0.4022 z m -2.45385,-1.1869 c -1.442484,-1.594 0.419661,-3.6384 2.365453,-2.597 0.426163,0.2281 0.6174,0.6695 0.6174,1.4251 0,1.6637 -1.872163,2.3992 -2.982853,1.1719 z m 12.125867,0.7847 c 1.241021,-1.0675 1.232863,-2.8526 -0.01794,-3.9285 -0.742546,-0.6387 -1.180822,-0.7556 -2.537577,-0.6768 -2.10035,0.1219 -2.132621,0.7025 -0.04636,0.834 1.732178,0.1092 2.715443,0.7462 2.715443,1.7593 0,1.1636 -0.923805,1.811 -2.584169,1.811 -1.447287,0 -2.114306,0.3022 -1.663048,0.7535 0.112266,0.1122 0.890351,0.2041 1.729079,0.2041 1.144211,0 1.744586,-0.1889 2.404582,-0.7566 z m -5.951093,-1.9566 c 0,-1.3831 -0.13477,-2.3939 -0.319193,-2.3939 -0.184422,0 -0.319192,1.0108 -0.319192,2.3939 0,1.3832 0.13477,2.394 0.319192,2.394 0.184423,0 0.319193,-1.0108 0.319193,-2.394 z m -15.415148,-8.5246 c 0.549908,-0.5132 0.724615,-1.0846 0.79798,-2.6096 0.07125,-1.4811 0.209543,-1.9526 0.572717,-1.9526 0.361457,0 0.502823,0.469 0.576863,1.914 0.14735,2.8757 1.818469,4.2652 3.859975,3.2095 1.057317,-0.5468 1.627811,-1.898 1.627811,-3.8557 0,-1.203 0.105657,-1.3937 0.970289,-1.7519 1.204431,-0.4989 1.90244,-1.4599 1.90244,-2.6193 0,-0.9233 0.130961,-0.9875 1.826196,-0.8952 1.441386,0.079 2.527998,-1.0846 2.817633,-3.0161 0.302498,-2.0172 0.01982,-7.5055 -0.429872,-8.3457 -0.442323,-0.8265 -1.827301,-1.419 -3.074499,-1.3154 -0.844665,0.07 -0.960372,-0.039 -1.194139,-1.1296 -0.355357,-1.6575 -0.988275,-2.7974 -2.224078,-4.0056 -0.969923,-0.9483 -1.020647,-1.0973 -0.680364,-1.9988 0.443558,-1.1751 0.253256,-1.7892 -0.642572,-2.0735 -0.498917,-0.1584 -0.871171,0.021 -1.457882,0.7033 -0.763531,0.8876 -0.882529,0.9164 -3.849007,0.9307 -2.992671,0.014 -3.079267,-0.01 -3.87277,-0.9176 -0.608121,-0.6985 -0.980924,-0.8786 -1.486675,-0.718 -0.900756,0.2859 -1.091845,0.8982 -0.647603,2.0751 0.340283,0.9015 0.289559,1.0505 -0.680364,1.9988 -1.235803,1.2082 -1.868722,2.3481 -2.224078,4.0056 -0.233765,1.0904 -0.349472,1.1998 -1.194138,1.1296 -1.247198,-0.1036 -2.632176,0.4889 -3.074499,1.3154 -0.449681,0.8402 -0.732372,6.3285 -0.429872,8.3457 0.289635,1.9315 1.376246,3.0946 2.817632,3.0161 1.695236,-0.092 1.826196,-0.028 1.826196,0.8952 0,1.1594 0.698009,2.1204 1.90244,2.6193 0.864632,0.3582 0.970289,0.5489 0.970289,1.7519 0,3.6753 2.446254,5.3922 4.693951,3.2944 z m -3.191877,-0.4997 c -0.341487,-0.3774 -0.544006,-1.3076 -0.608057,-2.793 -0.09316,-2.1604 -0.12211,-2.2301 -0.966793,-2.3274 -0.478915,-0.055 -1.161188,-0.4696 -1.516162,-0.9209 -0.595719,-0.7573 -0.645407,-1.282 -0.645407,-6.816 0,-3.2975 0.08719,-6.2227 0.193746,-6.5003 0.16946,-0.4417 1.185445,-0.5049 8.105247,-0.5049 6.919803,0 7.935788,0.063 8.105247,0.5049 0.106563,0.2776 0.193747,3.2028 0.193747,6.5003 0,5.534 -0.04969,6.0587 -0.645407,6.816 -0.354974,0.4513 -1.037247,0.8657 -1.516163,0.9209 -0.844682,0.097 -0.87363,0.167 -0.966792,2.3274 -0.104115,2.4145 -0.612264,3.3587 -1.807579,3.3587 -1.435616,0 -1.915927,-0.7471 -2.086284,-3.2454 l -0.159596,-2.3404 -1.117173,0 -1.117172,0 -0.159596,2.3404 c -0.124752,1.8295 -0.294866,2.4393 -0.779189,2.793 -0.84342,0.6159 -1.889451,0.5686 -2.506617,-0.1133 z m -7.364081,-9.3524 c -0.832714,-0.655 -0.841026,-0.7032 -0.841026,-4.8764 0,-3.2982 0.108067,-4.3692 0.496887,-4.9243 0.62037,-0.8857 1.848001,-0.9181 2.695033,-0.071 0.573137,0.5732 0.638384,1.064 0.638384,4.8024 0,3.9955 -0.03172,4.1958 -0.783471,4.9475 -0.952584,0.9526 -1.136842,0.9628 -2.205807,0.1219 z m 21.647506,-0.1219 c -0.751758,-0.7517 -0.783473,-0.952 -0.783473,-4.9475 0,-3.7384 0.06525,-4.2292 0.638384,-4.8024 0.847033,-0.847 2.074662,-0.8146 2.695034,0.071 0.388821,0.5551 0.496886,1.6261 0.496886,4.9243 0,4.1732 -0.0083,4.2214 -0.841026,4.8764 -1.068965,0.8409 -1.253221,0.8307 -2.205805,-0.1219 z m -17.700652,-12.123 c 0,-1.3606 0.640345,-2.5315 2.156481,-3.9434 l 1.47488,-1.3735 -0.556958,-0.9429 c -0.483149,-0.8179 -0.492092,-0.9428 -0.06748,-0.9428 0.269211,0 0.701205,0.3232 0.959987,0.7182 0.442881,0.676 0.678248,0.7167 4.008136,0.6938 3.255604,-0.022 3.57637,-0.08 4.023635,-0.7181 0.267305,-0.3817 0.70144,-0.6939 0.964744,-0.6939 0.407864,0 0.396284,0.1396 -0.07822,0.9428 l -0.556958,0.9429 1.47488,1.3735 c 1.516135,1.4119 2.156481,2.5828 2.156481,3.9434 l 0,0.7772 -7.979802,0 -7.979801,0 0,-0.7772 z m 4.857039,-2.7924 c -0.48757,-0.4876 -0.847339,-0.1278 -0.576915,0.5769 0.15967,0.4161 0.298099,0.4573 0.582059,0.1733 0.283961,-0.2839 0.282738,-0.4624 -0.0051,-0.7502 z m 6.953067,0.1992 c 0,-0.5267 -0.504465,-0.6156 -0.79798,-0.1407 -0.260303,0.4211 0.12136,1.0189 0.500843,0.7843 0.163426,-0.101 0.297137,-0.3906 0.297137,-0.6436 z"
         id="path3000" />
      <path
         style="fill:#8ca2b5"
         d="m 0.04332595,1028.4209 0,-23.9394 23.93940305,0 23.939404,0 0,23.9394 0,23.9394 -23.939404,0 -23.93940305,0 0,-23.9394 z m 5.90644615,21.0644 c 0.1092658,-0.1768 -0.061803,-0.4141 -0.3801523,-0.5273 -2.5065593,-0.8914 -2.0892352,-3.6199 0.5536759,-3.6199 1.4116281,0 1.5806394,0.2997 1.5806394,2.8031 0,1.249 0.1014073,1.6918 0.3341621,1.4591 0.1913011,-0.1913 0.2936468,-1.3444 0.2393941,-2.6972 l -0.094768,-2.363 -1.6400077,-0.095 c -1.3567539,-0.079 -1.7950311,0.038 -2.5375768,0.6768 -1.2508161,1.0759 -1.2589731,2.861 -0.017951,3.9285 0.9357613,0.8049 1.637859,0.9605 1.9625846,0.4351 z m 9.4147719,-1.144 c 0,-2.5317 -1.527853,-4.2874 -3.336097,-3.8336 -1.500833,0.3767 -2.0901676,1.2858 -2.0901676,3.2243 0,2.188 0.5039946,2.3089 0.7094966,0.1702 0.179466,-1.8677 0.662406,-2.5641 1.778192,-2.5641 1.318587,0 1.981,0.8526 1.981,2.5498 0,0.8213 0.09185,1.5851 0.204117,1.6974 0.408521,0.4085 0.753459,-0.161 0.753459,-1.244 z m 5.216452,1.1111 c 1.646156,-0.7501 1.917038,-2.7754 0.553558,-4.1389 -0.790156,-0.7901 -1.185232,-0.933 -2.580135,-0.933 -2.154659,0 -2.012664,0.7318 0.186905,0.9633 2.047693,0.2154 2.368677,0.4526 2.368677,1.7498 0,1.2973 -0.320984,1.5344 -2.368677,1.7499 -2.075199,0.2184 -2.37375,0.9633 -0.386074,0.9633 0.79637,0 1.797955,-0.1595 2.225746,-0.3544 z m 8.08821,-0.7852 c -0.101713,-0.6268 -0.05605,-1.4786 0.101473,-1.8929 0.219201,-0.5766 0.132367,-0.9492 -0.370064,-1.5879 -0.599076,-0.7616 -0.827872,-0.8263 -2.616976,-0.7404 -2.54212,0.122 -2.537994,0.7048 0.0059,0.8268 1.436833,0.069 2.018521,0.2302 2.160054,0.599 0.332813,0.8673 -0.436557,1.3474 -2.31758,1.4461 -2.357266,0.1237 -2.336443,0.7058 0.02966,0.8291 1.541651,0.08 1.92122,0.2221 2.350853,0.8778 0.703726,1.074 0.874005,0.9813 0.656725,-0.3576 z m 5.63705,0.7852 c 0.833033,-0.3796 1.486579,-1.5041 1.486579,-2.5579 0,-0.9149 -1.698823,-2.514 -2.670779,-2.514 -1.325359,0 -2.56397,1.3107 -2.56397,2.7131 0,0.9138 0.209764,1.3804 0.879618,1.9566 0.970556,0.8348 1.695859,0.9365 2.868552,0.4022 z m -2.45385,-1.1869 c -1.442484,-1.594 0.419661,-3.6384 2.365453,-2.597 0.426163,0.2281 0.6174,0.6695 0.6174,1.4251 0,1.6637 -1.872163,2.3992 -2.982853,1.1719 z m 12.125867,0.7847 c 1.241021,-1.0675 1.232863,-2.8526 -0.01794,-3.9285 -0.742546,-0.6387 -1.180822,-0.7556 -2.537577,-0.6768 -2.10035,0.1219 -2.132621,0.7025 -0.04636,0.834 1.732178,0.1092 2.715443,0.7462 2.715443,1.7593 0,1.1636 -0.923805,1.811 -2.584169,1.811 -1.447287,0 -2.114306,0.3022 -1.663048,0.7535 0.112266,0.1122 0.890351,0.2041 1.729079,0.2041 1.144211,0 1.744586,-0.1889 2.404582,-0.7566 z m -5.951093,-1.9566 c 0,-1.3831 -0.13477,-2.3939 -0.319193,-2.3939 -0.184422,0 -0.319192,1.0108 -0.319192,2.3939 0,1.3832 0.13477,2.394 0.319192,2.394 0.184423,0 0.319193,-1.0108 0.319193,-2.394 z m -15.415148,-8.5246 c 0.549908,-0.5132 0.724615,-1.0846 0.79798,-2.6096 0.07125,-1.4811 0.209543,-1.9526 0.572717,-1.9526 0.361457,0 0.502823,0.469 0.576863,1.914 0.14735,2.8757 1.818469,4.2652 3.859975,3.2095 1.057317,-0.5468 1.627811,-1.898 1.627811,-3.8557 0,-1.203 0.105657,-1.3937 0.970289,-1.7519 1.204431,-0.4989 1.90244,-1.4599 1.90244,-2.6193 0,-0.9233 0.130961,-0.9875 1.826196,-0.8952 1.441386,0.079 2.527998,-1.0846 2.817633,-3.0161 0.302498,-2.0172 0.01982,-7.5055 -0.429872,-8.3457 -0.442323,-0.8265 -1.827301,-1.419 -3.074499,-1.3154 -0.844665,0.07 -0.960372,-0.039 -1.194139,-1.1296 -0.355357,-1.6575 -0.988275,-2.7974 -2.224078,-4.0056 -0.969923,-0.9483 -1.020647,-1.0973 -0.680364,-1.9988 0.443558,-1.1751 0.253256,-1.7892 -0.642572,-2.0735 -0.498917,-0.1584 -0.871171,0.021 -1.457882,0.7033 -0.763531,0.8876 -0.882529,0.9164 -3.849007,0.9307 -2.992671,0.014 -3.079267,-0.01 -3.87277,-0.9176 -0.608121,-0.6985 -0.980924,-0.8786 -1.486675,-0.718 -0.900756,0.2859 -1.091845,0.8982 -0.647603,2.0751 0.340283,0.9015 0.289559,1.0505 -0.680364,1.9988 -1.235803,1.2082 -1.868722,2.3481 -2.224078,4.0056 -0.233765,1.0904 -0.349472,1.1998 -1.194138,1.1296 -1.247198,-0.1036 -2.632176,0.4889 -3.074499,1.3154 -0.449681,0.8402 -0.732372,6.3285 -0.429872,8.3457 0.289635,1.9315 1.376246,3.0946 2.817632,3.0161 1.695236,-0.092 1.826196,-0.028 1.826196,0.8952 0,1.1594 0.698009,2.1204 1.90244,2.6193 0.864632,0.3582 0.970289,0.5489 0.970289,1.7519 0,3.6753 2.446254,5.3922 4.693951,3.2944 z m -2.778799,-0.5648 c -0.332273,-0.2096 -0.527627,-1.0592 -0.638384,-2.7764 l -0.159596,-2.4744 -1.066947,-0.2168 c -0.586821,-0.1193 -1.233185,-0.3827 -1.436364,-0.5855 -0.396295,-0.3954 -0.727036,-11.3159 -0.384099,-12.6823 l 0.18644,-0.7428 7.648446,0 7.648447,0 0.18644,0.7428 c 0.342938,1.3664 0.0122,12.2869 -0.384099,12.6823 -0.203179,0.2028 -0.849543,0.4662 -1.436364,0.5855 l -1.066947,0.2168 -0.159596,2.4744 c -0.161926,2.5106 -0.46002,3.0721 -1.636675,3.0832 -0.920639,0.01 -1.391984,-0.9959 -1.555245,-3.3145 l -0.159596,-2.2665 -1.436365,0 -1.436364,0 -0.159596,2.2665 c -0.207864,2.9521 -1.056542,3.9517 -2.553536,3.0077 z m -7.968571,-9.8815 c -0.181732,-0.3396 -0.330422,-2.4 -0.330422,-4.5788 0,-3.4324 0.07795,-4.032 0.583719,-4.4897 0.758682,-0.6866 1.424454,-0.6688 2.079942,0.055 0.430971,0.4762 0.528259,1.303 0.528259,4.4896 0,4.4034 -0.228912,5.1408 -1.59596,5.1408 -0.597842,0 -1.054291,-0.2227 -1.265538,-0.6174 z m 21.705058,0 c -0.181732,-0.3396 -0.330421,-2.4 -0.330421,-4.5788 0,-3.4324 0.07795,-4.032 0.583719,-4.4897 0.758681,-0.6866 1.424455,-0.6688 2.079942,0.055 0.43097,0.4762 0.528259,1.303 0.528259,4.4896 0,4.4034 -0.228911,5.1408 -1.59596,5.1408 -0.597843,0 -1.054291,-0.2227 -1.265539,-0.6174 z m -17.2476,-11.8469 c 0,-1.0548 0.785439,-2.2813 2.441269,-3.8123 l 1.548632,-1.4318 3.670708,0 3.670709,0 1.548632,1.4318 c 1.65583,1.531 2.441269,2.7575 2.441269,3.8123 0,0.6413 -0.150927,0.6542 -7.66061,0.6542 -7.509682,0 -7.660609,-0.013 -7.660609,-0.6542 z m 5.049662,-2.1434 c 0.130918,-0.9178 -0.771577,-1.2981 -1.456082,-0.6136 -0.423825,0.4238 -0.43759,0.5894 -0.0844,1.0149 0.574403,0.6921 1.415773,0.4729 1.540483,-0.4013 z m 6.760444,0.4036 c 0.317017,-0.3819 0.317017,-0.5755 0,-0.9575 -0.797649,-0.9611 -1.934614,-0.2258 -1.480532,0.9575 0.101051,0.2634 0.386103,0.4788 0.633451,0.4788 0.247347,0 0.628534,-0.2154 0.847081,-0.4788 z"
         id="path2998" />
      <path
         style="fill:#a5c859"
         d="m 0.04332595,1028.4209 0,-23.9394 23.93940305,0 23.939404,0 0,23.9394 0,23.9394 -23.939404,0 -23.93940305,0 0,-23.9394 z m 6.03423655,21.2629 c 0.2928437,-0.3528 0.1395881,-0.5763 -0.7588966,-1.1064 -1.9172542,-1.1312 -1.3419504,-3.0723 0.848256,-2.8621 l 1.0582251,0.1016 0.159596,2.0747 c 0.087778,1.1411 0.2673234,2.0389 0.3989901,1.995 0.1316667,-0.044 0.3830304,-0.08 0.5585861,-0.08 0.1877037,0 0.319192,-1.1152 0.319192,-2.7071 0,-2.6383 -0.020741,-2.7122 -0.8172596,-2.9122 -1.3876179,-0.3482 -3.3721839,0.088 -4.209318,0.925 -1.4429635,1.443 -0.8979917,3.9199 1.036677,4.7117 0.8961879,0.3668 0.9930435,0.3571 1.4059519,-0.1404 z m 4.8216515,-1.4981 c 0.201582,-2.1406 0.438938,-2.5284 1.547601,-2.5284 1.241814,0 1.640961,0.5495 1.640961,2.2591 0,1.4026 0.577911,2.4828 1.066743,1.994 0.115514,-0.1155 0.210025,-1.0285 0.210025,-2.0289 0,-2.1179 -0.735045,-3.3313 -2.214936,-3.6563 -1.079971,-0.2372 -2.70124,0.479 -3.2018665,1.4144 -0.3673779,0.6864 -0.4503681,3.9391 -0.1092096,4.2802 0.5180671,0.5181 0.9087401,-0.1206 1.0606821,-1.7341 z m 9.740918,1.5589 c 0.845404,-0.3852 1.746637,-1.7371 1.746637,-2.6201 0,-0.9309 -0.773138,-2.1589 -1.642251,-2.6083 -1.2352,-0.6388 -3.747012,-0.6035 -4.000139,0.056 -0.268187,0.6989 0.438483,1.0743 2.03338,1.0801 0.986986,0 1.459684,0.1779 1.800072,0.6639 0.96509,1.3779 -0.342287,2.5329 -2.866977,2.5329 -1.006217,0 -1.414136,0.5066 -0.856747,1.064 0.352474,0.3524 2.890497,0.2395 3.786025,-0.1686 z m 8.374324,-2.1147 c 0.0076,-1.2068 -0.08013,-2.3383 -0.194853,-2.5144 -0.711173,-1.0917 -4.989827,-1.5396 -5.365112,-0.5616 -0.279009,0.7271 -0.0043,0.861 2.1989,1.0717 1.480006,0.1415 2.000047,0.3158 2.000047,0.6701 0,0.36 -0.513936,0.5183 -2.071884,0.6383 -1.577249,0.1215 -2.095389,0.2836 -2.170342,0.6787 -0.0801,0.4223 0.269625,0.5457 1.875165,0.6619 1.687835,0.122 2.063913,0.2667 2.597152,0.9987 0.342941,0.4708 0.734603,0.7873 0.87036,0.7034 0.135757,-0.084 0.253012,-1.14 0.260567,-2.3468 z m 5.455319,2.0412 c 0.869115,-0.4494 1.642252,-1.6774 1.642252,-2.6083 0,-1.6699 -1.985553,-3.2363 -3.591367,-2.8333 -2.746495,0.6893 -3.019509,4.522 -0.398533,5.5947 0.934096,0.3823 1.366837,0.3541 2.347648,-0.1531 z m -2.443406,-1.5241 c -0.912812,-0.9128 -0.216698,-2.4897 1.099074,-2.4897 1.333131,0 2.007105,1.8944 0.935118,2.6284 -0.527165,0.361 -1.608208,0.2873 -2.034192,-0.1387 z m 6.252631,-0.9993 c 0.08672,-2.6022 0.05341,-2.7672 -0.558586,-2.7672 -0.602887,0 -0.650811,0.1959 -0.650811,2.6599 0,1.463 0.09875,2.7587 0.219445,2.8794 0.60605,0.6061 0.905292,-0.2319 0.989952,-2.7721 z m 6.056666,1.9219 c 1.120463,-1.1204 1.106125,-2.8458 -0.03312,-3.9851 -0.612826,-0.6128 -1.216888,-0.837 -2.504135,-0.9295 -0.933065,-0.067 -1.911938,0.031 -2.175271,0.2174 -0.750686,0.5322 0.477639,1.2849 2.09667,1.2849 1.497515,0 2.156063,0.544 1.99753,1.6502 -0.128514,0.8967 -1.315914,1.5307 -2.878391,1.537 -0.647973,0 -1.276832,0.1644 -1.397461,0.3596 -0.37853,0.6124 0.595641,0.9548 2.356923,0.8282 1.30758,-0.094 1.889221,-0.3146 2.537255,-0.9627 z m -22.122793,-9.6753 c 0.800546,-0.3072 1.450664,-1.8562 1.450664,-3.4565 0,-0.7988 0.143637,-1.4522 0.319192,-1.4522 0.175556,0 0.319192,0.6534 0.319192,1.4522 0,1.6003 0.650119,3.1493 1.450665,3.4565 1.179976,0.4528 2.731983,0.1942 3.511321,-0.5851 0.643031,-0.6431 0.783471,-1.1001 0.783471,-2.5496 0,-1.7069 0.04183,-1.7924 1.249937,-2.5551 1.435474,-0.9062 1.649176,-1.1881 1.925753,-2.5404 0.186274,-0.9108 0.288358,-0.9757 1.38552,-0.8812 0.965933,0.083 1.361054,-0.074 2.141913,-0.8554 l 0.957486,-0.9575 0,-4.8269 c 0,-4.6993 -0.02072,-4.8477 -0.783472,-5.6104 -0.602016,-0.6021 -1.119499,-0.7835 -2.234345,-0.7835 -1.301824,0 -1.450871,-0.076 -1.450871,-0.7353 0,-1.0394 -1.505995,-3.9355 -2.420588,-4.6549 -0.675861,-0.5316 -0.744867,-0.7785 -0.571427,-2.0438 0.171477,-1.2511 0.108722,-1.4866 -0.480111,-1.8017 -0.749946,-0.4014 -1.449865,-0.1496 -2.350461,0.8456 -0.464397,0.5131 -0.987904,0.6032 -3.404759,0.5855 -2.431772,-0.018 -2.966073,-0.12 -3.59715,-0.6889 -1.142477,-1.0299 -1.471531,-1.1409 -2.20992,-0.7458 -0.596234,0.3191 -0.658665,0.5507 -0.486708,1.8053 0.173439,1.2653 0.104434,1.5122 -0.571427,2.0438 -0.914593,0.7194 -2.420588,3.6155 -2.420588,4.6549 0,0.6597 -0.149046,0.7353 -1.450873,0.7353 -1.114843,0 -1.632329,0.1814 -2.234344,0.7835 -0.762756,0.7627 -0.783472,0.9111 -0.783472,5.6104 l 0,4.8269 0.957487,0.9575 c 0.780857,0.7809 1.175979,0.9387 2.141914,0.8554 1.09716,-0.094 1.199244,-0.03 1.385518,0.8812 0.276577,1.3523 0.49028,1.6342 1.925754,2.5404 1.208108,0.7627 1.249937,0.8482 1.249937,2.5551 0,1.4495 0.14044,1.9065 0.783471,2.5496 0.779338,0.7793 2.331345,1.0379 3.511321,0.5851 z m -2.37964,-1.3901 c -0.332273,-0.2096 -0.527627,-1.0592 -0.638384,-2.7764 l -0.159596,-2.4744 -1.066947,-0.2168 c -0.586821,-0.1193 -1.233185,-0.3827 -1.436364,-0.5855 -0.396295,-0.3954 -0.727036,-11.3159 -0.384099,-12.6823 l 0.18644,-0.7428 7.648446,0 7.648447,0 0.18644,0.7428 c 0.342938,1.3664 0.0122,12.2869 -0.384099,12.6823 -0.203179,0.2028 -0.849543,0.4662 -1.436364,0.5855 l -1.066947,0.2168 -0.159596,2.4744 c -0.161926,2.5106 -0.46002,3.0721 -1.636675,3.0832 -0.920639,0.01 -1.391984,-0.9959 -1.555245,-3.3145 l -0.159596,-2.2665 -1.436365,0 -1.436364,0 -0.159596,2.2665 c -0.207864,2.9521 -1.056542,3.9517 -2.553536,3.0077 z m -7.968571,-9.8815 c -0.181732,-0.3396 -0.330422,-2.4 -0.330422,-4.5788 0,-3.4324 0.07795,-4.032 0.583719,-4.4897 0.758682,-0.6866 1.424454,-0.6688 2.079942,0.055 0.430971,0.4762 0.528259,1.303 0.528259,4.4896 0,4.4034 -0.228912,5.1408 -1.59596,5.1408 -0.597842,0 -1.054291,-0.2227 -1.265538,-0.6174 z m 21.705058,0 c -0.181732,-0.3396 -0.330421,-2.4 -0.330421,-4.5788 0,-3.4324 0.07795,-4.032 0.583719,-4.4897 0.758681,-0.6866 1.424455,-0.6688 2.079942,0.055 0.43097,0.4762 0.528259,1.303 0.528259,4.4896 0,4.4034 -0.228911,5.1408 -1.59596,5.1408 -0.597843,0 -1.054291,-0.2227 -1.265539,-0.6174 z m -17.2476,-11.8469 c 0,-1.0548 0.785439,-2.2813 2.441269,-3.8123 l 1.548632,-1.4318 3.670708,0 3.670709,0 1.548632,1.4318 c 1.65583,1.531 2.441269,2.7575 2.441269,3.8123 0,0.6413 -0.150927,0.6542 -7.66061,0.6542 -7.509682,0 -7.660609,-0.013 -7.660609,-0.6542 z m 5.049662,-2.1434 c 0.130918,-0.9178 -0.771577,-1.2981 -1.456082,-0.6136 -0.423825,0.4238 -0.43759,0.5894 -0.0844,1.0149 0.574403,0.6921 1.415773,0.4729 1.540483,-0.4013 z m 6.760444,0.4036 c 0.317017,-0.3819 0.317017,-0.5755 0,-0.9575 -0.797649,-0.9611 -1.934614,-0.2258 -1.480532,0.9575 0.101051,0.2634 0.386103,0.4788 0.633451,0.4788 0.247347,0 0.628534,-0.2154 0.847081,-0.4788 z"
         id="path2996" />
      <path
         style="fill:#728da5"
         d="m 0.04332595,1028.4209 0,-23.9394 23.93940305,0 23.939404,0 0,23.9394 0,23.9394 -23.939404,0 -23.93940305,0 0,-23.9394 z m 6.03423655,21.2629 c 0.2928437,-0.3528 0.1395881,-0.5763 -0.7588966,-1.1064 -1.9172542,-1.1312 -1.3419504,-3.0723 0.848256,-2.8621 l 1.0582251,0.1016 0.159596,2.0747 c 0.087778,1.1411 0.2673234,2.0389 0.3989901,1.995 0.1316667,-0.044 0.3830304,-0.08 0.5585861,-0.08 0.1877037,0 0.319192,-1.1152 0.319192,-2.7071 0,-2.6383 -0.020741,-2.7122 -0.8172596,-2.9122 -1.3876179,-0.3482 -3.3721839,0.088 -4.209318,0.925 -1.4429635,1.443 -0.8979917,3.9199 1.036677,4.7117 0.8961879,0.3668 0.9930435,0.3571 1.4059519,-0.1404 z m 4.8216515,-1.4981 c 0.201582,-2.1406 0.438938,-2.5284 1.547601,-2.5284 1.241814,0 1.640961,0.5495 1.640961,2.2591 0,1.4026 0.577911,2.4828 1.066743,1.994 0.115514,-0.1155 0.210025,-1.0285 0.210025,-2.0289 0,-2.1179 -0.735045,-3.3313 -2.214936,-3.6563 -1.079971,-0.2372 -2.70124,0.479 -3.2018665,1.4144 -0.3673779,0.6864 -0.4503681,3.9391 -0.1092096,4.2802 0.5180671,0.5181 0.9087401,-0.1206 1.0606821,-1.7341 z m 9.740918,1.5589 c 0.845404,-0.3852 1.746637,-1.7371 1.746637,-2.6201 0,-0.9309 -0.773138,-2.1589 -1.642251,-2.6083 -1.2352,-0.6388 -3.747012,-0.6035 -4.000139,0.056 -0.268187,0.6989 0.438483,1.0743 2.03338,1.0801 0.986986,0 1.459684,0.1779 1.800072,0.6639 0.96509,1.3779 -0.342287,2.5329 -2.866977,2.5329 -1.006217,0 -1.414136,0.5066 -0.856747,1.064 0.352474,0.3524 2.890497,0.2395 3.786025,-0.1686 z m 8.374324,-2.1147 c 0.0076,-1.2068 -0.08013,-2.3383 -0.194853,-2.5144 -0.711173,-1.0917 -4.989827,-1.5396 -5.365112,-0.5616 -0.279009,0.7271 -0.0043,0.861 2.1989,1.0717 1.480006,0.1415 2.000047,0.3158 2.000047,0.6701 0,0.36 -0.513936,0.5183 -2.071884,0.6383 -1.577249,0.1215 -2.095389,0.2836 -2.170342,0.6787 -0.0801,0.4223 0.269625,0.5457 1.875165,0.6619 1.687835,0.122 2.063913,0.2667 2.597152,0.9987 0.342941,0.4708 0.734603,0.7873 0.87036,0.7034 0.135757,-0.084 0.253012,-1.14 0.260567,-2.3468 z m 5.455319,2.0412 c 0.869115,-0.4494 1.642252,-1.6774 1.642252,-2.6083 0,-1.6699 -1.985553,-3.2363 -3.591367,-2.8333 -2.746495,0.6893 -3.019509,4.522 -0.398533,5.5947 0.934096,0.3823 1.366837,0.3541 2.347648,-0.1531 z m -2.443406,-1.5241 c -0.912812,-0.9128 -0.216698,-2.4897 1.099074,-2.4897 1.333131,0 2.007105,1.8944 0.935118,2.6284 -0.527165,0.361 -1.608208,0.2873 -2.034192,-0.1387 z m 6.252631,-0.9993 c 0.08672,-2.6022 0.05341,-2.7672 -0.558586,-2.7672 -0.602887,0 -0.650811,0.1959 -0.650811,2.6599 0,1.463 0.09875,2.7587 0.219445,2.8794 0.60605,0.6061 0.905292,-0.2319 0.989952,-2.7721 z m 6.056666,1.9219 c 1.120463,-1.1204 1.106125,-2.8458 -0.03312,-3.9851 -0.612826,-0.6128 -1.216888,-0.837 -2.504135,-0.9295 -0.933065,-0.067 -1.911938,0.031 -2.175271,0.2174 -0.750686,0.5322 0.477639,1.2849 2.09667,1.2849 1.497515,0 2.156063,0.544 1.99753,1.6502 -0.128514,0.8967 -1.315914,1.5307 -2.878391,1.537 -0.647973,0 -1.276832,0.1644 -1.397461,0.3596 -0.37853,0.6124 0.595641,0.9548 2.356923,0.8282 1.30758,-0.094 1.889221,-0.3146 2.537255,-0.9627 z m -22.122793,-9.6753 c 0.800546,-0.3072 1.450664,-1.8562 1.450664,-3.4565 0,-0.7988 0.143637,-1.4522 0.319192,-1.4522 0.175556,0 0.319192,0.6534 0.319192,1.4522 0,1.6003 0.650119,3.1493 1.450665,3.4565 1.179976,0.4528 2.731983,0.1942 3.511321,-0.5851 0.643031,-0.6431 0.783471,-1.1001 0.783471,-2.5496 0,-1.7069 0.04183,-1.7924 1.249937,-2.5551 1.435474,-0.9062 1.649176,-1.1881 1.925753,-2.5404 0.186274,-0.9108 0.288358,-0.9757 1.38552,-0.8812 0.965933,0.083 1.361054,-0.074 2.141913,-0.8554 l 0.957486,-0.9575 0,-4.8269 c 0,-4.6993 -0.02072,-4.8477 -0.783472,-5.6104 -0.602016,-0.6021 -1.119499,-0.7835 -2.234345,-0.7835 -1.301824,0 -1.450871,-0.076 -1.450871,-0.7353 0,-1.0394 -1.505995,-3.9355 -2.420588,-4.6549 -0.675861,-0.5316 -0.744867,-0.7785 -0.571427,-2.0438 0.171477,-1.2511 0.108722,-1.4866 -0.480111,-1.8017 -0.749946,-0.4014 -1.449865,-0.1496 -2.350461,0.8456 -0.464397,0.5131 -0.987904,0.6032 -3.404759,0.5855 -2.431772,-0.018 -2.966073,-0.12 -3.59715,-0.6889 -1.142477,-1.0299 -1.471531,-1.1409 -2.20992,-0.7458 -0.596234,0.3191 -0.658665,0.5507 -0.486708,1.8053 0.173439,1.2653 0.104434,1.5122 -0.571427,2.0438 -0.914593,0.7194 -2.420588,3.6155 -2.420588,4.6549 0,0.6597 -0.149046,0.7353 -1.450873,0.7353 -1.114843,0 -1.632329,0.1814 -2.234344,0.7835 -0.762756,0.7627 -0.783472,0.9111 -0.783472,5.6104 l 0,4.8269 0.957487,0.9575 c 0.780857,0.7809 1.175979,0.9387 2.141914,0.8554 1.09716,-0.094 1.199244,-0.03 1.385518,0.8812 0.276577,1.3523 0.49028,1.6342 1.925754,2.5404 1.208108,0.7627 1.249937,0.8482 1.249937,2.5551 0,1.4495 0.14044,1.9065 0.783471,2.5496 0.779338,0.7793 2.331345,1.0379 3.511321,0.5851 z m -2.281004,-1.7966 c -0.142028,-0.2195 -0.33005,-1.471 -0.417828,-2.7812 -0.158127,-2.3603 -0.168668,-2.3841 -1.145035,-2.5824 -1.764174,-0.3584 -1.727694,-0.2101 -1.727694,-7.024 l 0,-6.365 7.341417,0 7.341418,0 0,6.365 c 0,6.8139 0.03648,6.6656 -1.727694,7.024 -0.979727,0.199 -0.986364,0.2143 -1.145035,2.6474 -0.172343,2.6427 -0.517754,3.2978 -1.563829,2.9658 -0.590605,-0.1875 -0.670515,-0.46 -0.670515,-2.2871 0,-2.8812 -0.28888,-3.309 -2.234345,-3.309 -1.943962,0 -2.234344,0.4284 -2.234344,3.2964 0,1.5854 -0.11661,2.1063 -0.504894,2.2553 -0.741242,0.2845 -1.023252,0.2403 -1.311622,-0.2052 z m -7.748015,-9.7942 c -0.181732,-0.3396 -0.330422,-2.2684 -0.330422,-4.2863 0,-2.9098 0.103782,-3.7727 0.501587,-4.1705 0.579345,-0.5793 0.758021,-0.6033 1.413565,-0.1897 0.612534,0.3864 0.891134,7.5568 0.334059,8.5977 -0.447565,0.8363 -1.483235,0.8626 -1.918789,0.049 z m 21.678961,-0.049 c -0.557073,-1.0409 -0.278473,-8.2113 0.33406,-8.5977 0.655544,-0.4136 0.834221,-0.3896 1.413564,0.1897 0.397806,0.3978 0.501588,1.2607 0.501588,4.1705 0,2.0179 -0.148689,3.9467 -0.330421,4.2863 -0.435554,0.8138 -1.471226,0.7875 -1.918791,-0.049 z m -17.082084,-11.9751 c 0.330888,-1.3184 1.122333,-2.319 2.702061,-3.4162 1.399154,-0.9717 1.609059,-1.0193 4.499937,-1.0193 2.890878,0 3.100784,0.048 4.499938,1.0193 1.579728,1.0972 2.371173,2.0978 2.702061,3.4162 l 0.208624,0.8312 -7.410623,0 -7.410623,0 0.208625,-0.8312 z m 4.594224,-0.7245 c 0.241138,-0.1529 0.379034,-0.6678 0.319192,-1.1921 -0.117546,-1.0297 -1.214128,-1.4326 -2.038079,-0.7487 -1.292395,1.0726 0.28283,2.8512 1.718887,1.9408 z m 7.201828,-0.4393 c 0.51344,-0.819 -0.139567,-1.6757 -1.277325,-1.6757 -0.780539,0 -0.939029,0.1423 -1.028146,0.9229 -0.166571,1.4592 1.517884,2.0092 2.305471,0.7528 z"
         id="path2994" />
      <path
         style="fill:#95be3b"
         d="m 0.04332595,1028.4209 0,-23.9394 23.93940305,0 23.939404,0 0,23.9394 0,23.9394 -23.939404,0 -23.93940305,0 0,-23.9394 z m 6.38384095,21.0841 c 0,-0.355 -0.3634215,-0.7994 -0.8483356,-1.0374 -0.4665847,-0.229 -0.9991828,-0.6593 -1.1835519,-0.9563 -0.4785886,-0.7708 0.6070796,-1.9162 1.6960413,-1.7893 0.7606563,0.089 0.8252091,0.2322 0.9742303,2.1668 0.1311442,1.7025 0.2665853,2.0922 0.7597323,2.1859 0.8805599,0.1674 1.1450635,-0.4936 1.1505322,-2.8752 0.0071,-3.0929 -0.028201,-3.1382 -2.4477558,-3.1382 -1.8569467,0 -2.1592174,0.094 -2.9981744,0.933 -0.6907644,0.6908 -0.933023,1.2359 -0.933023,2.0993 0,1.5233 1.4173749,3.0324 2.8481752,3.0324 0.7601524,0 0.9821294,-0.1404 0.9821294,-0.621 z m 4.5941351,0.1161 c 0.10656,-0.2777 0.193746,-1.1426 0.193746,-1.922 0,-1.2188 0.116921,-1.4704 0.835476,-1.7978 0.737383,-0.336 0.906027,-0.2935 1.436364,0.3614 0.40784,0.5037 0.600888,1.2506 0.600888,2.3249 0,1.4588 0.05624,1.5748 0.718182,1.4808 0.664802,-0.095 0.718182,-0.2642 0.718182,-2.2842 0,-1.9953 -0.07672,-2.2482 -0.895577,-2.9526 -1.049391,-0.9026 -2.735463,-1.0201 -3.879651,-0.2704 -1.6661666,1.0917 -2.0611951,5.5648 -0.491441,5.5648 0.313547,0 0.65727,-0.2272 0.763831,-0.5049 z m 10.470223,-0.3528 c 0.704201,-0.6747 0.895244,-1.1455 0.895244,-2.206 0,-1.1186 -0.170139,-1.4914 -0.998892,-2.1888 -0.878911,-0.7395 -1.233555,-0.8292 -2.952527,-0.7465 -1.70952,0.082 -1.953634,0.1737 -1.953634,0.7323 0,0.546 0.26766,0.6622 1.850087,0.803 1.139937,0.1014 1.965077,0.3464 2.149659,0.6384 0.810315,1.2815 -0.14547,2.2293 -2.248151,2.2293 -1.596144,0 -2.101715,0.3199 -1.789897,1.1325 0.129143,0.3365 0.722278,0.4635 2.165365,0.4635 1.722,0 2.107095,-0.1146 2.882746,-0.8577 z m 7.798721,-1.5363 c 0.0576,-3.1505 -0.448796,-3.6707 -3.57345,-3.6707 -1.63199,0 -2.352055,0.1248 -2.468365,0.4279 -0.308732,0.8046 0.271095,1.1319 2.178326,1.2298 1.439249,0.074 1.907489,0.2154 1.907489,0.5767 0,0.3635 -0.473184,0.5014 -1.96636,0.573 -1.308798,0.063 -2.022946,0.2418 -2.135574,0.5353 -0.26983,0.7031 0.479052,1.0803 2.356054,1.1867 1.462472,0.083 1.797694,0.2173 2.065072,0.8285 0.206554,0.4722 0.544469,0.6974 0.957576,0.6384 0.564256,-0.081 0.643127,-0.3507 0.679232,-2.3256 z m 5.926537,1.5363 c 0.704201,-0.6747 0.895244,-1.1455 0.895244,-2.206 0,-2.7214 -3.191895,-4.0077 -5.131626,-2.068 -2.813367,2.8134 1.363028,7.0268 4.236382,4.274 z m -3.045185,-1.322 c -0.290543,-0.3211 -0.528259,-0.7297 -0.528259,-0.9081 0,-0.4167 1.060273,-1.3809 1.518495,-1.3809 0.490841,0 1.354233,0.9157 1.354233,1.4363 0,0.5469 -0.872981,1.4364 -1.409693,1.4364 -0.223584,0 -0.644234,-0.2627 -0.934776,-0.5837 z m 6.300219,1.6748 c 0.106562,-0.2777 0.193747,-1.4151 0.193747,-2.5275 0,-2.4108 -0.196272,-3.0323 -0.957577,-3.0323 -0.761304,0 -0.957576,0.6215 -0.957576,3.0323 0,2.4108 0.196272,3.0324 0.957576,3.0324 0.313546,0 0.657271,-0.2272 0.76383,-0.5049 z m 5.963756,-0.4282 c 0.690766,-0.6907 0.933024,-1.2358 0.933024,-2.0993 0,-0.8634 -0.242258,-1.4085 -0.933024,-2.0993 -0.844062,-0.844 -1.135296,-0.933 -3.054525,-0.933 -2.017501,0 -2.116501,0.035 -2.019502,0.7182 0.08789,0.6188 0.322483,0.7321 1.695647,0.8186 1.559151,0.098 2.715443,0.7351 2.715443,1.4955 0,0.7605 -1.156292,1.3973 -2.715443,1.4955 -1.373164,0.087 -1.607761,0.1999 -1.695647,0.8187 -0.097,0.683 0.0019,0.7182 2.019502,0.7182 1.919229,0 2.210463,-0.089 3.054525,-0.9331 z m -21.538097,-10.3663 1.085253,-1.0853 1.085253,1.0853 c 1.194254,1.1942 2.222981,1.3716 3.656337,0.6304 1.120445,-0.5794 1.642023,-1.7317 1.643114,-3.6299 7.98e-4,-1.4078 0.07527,-1.5409 1.19697,-2.1395 0.881917,-0.4707 1.31628,-0.986 1.653599,-1.9617 0.411985,-1.1917 0.558925,-1.3205 1.47732,-1.2944 1.253448,0.036 2.61943,-0.8167 3.026911,-1.8885 0.50387,-1.3253 0.382801,-8.9406 -0.158788,-9.9879 -0.487155,-0.9421 -1.610155,-1.5367 -3.19562,-1.692 -0.764631,-0.075 -0.983709,-0.2765 -1.141543,-1.0503 -0.279858,-1.372 -0.862795,-2.3889 -2.129659,-3.7151 -0.941612,-0.9856 -1.056722,-1.2604 -0.760241,-1.8143 0.482115,-0.9009 0.437515,-1.5187 -0.152207,-2.1084 -0.744395,-0.7444 -1.918581,-0.6122 -2.633306,0.2964 -0.588382,0.748 -0.811841,0.798 -3.56814,0.798 -2.756299,0 -2.979758,-0.05 -3.568139,-0.798 -0.714725,-0.9086 -1.888911,-1.0408 -2.633306,-0.2964 -0.589722,0.5897 -0.634322,1.2075 -0.152207,2.1084 0.296481,0.5539 0.181371,0.8287 -0.760241,1.8143 -1.266863,1.3262 -1.849801,2.3431 -2.129658,3.7151 -0.157835,0.7738 -0.376914,0.9754 -1.141543,1.0503 -1.585466,0.1553 -2.708466,0.7499 -3.19562,1.692 -0.5415897,1.0473 -0.6626602,8.6626 -0.158791,9.9879 0.407481,1.0718 1.773465,1.924 3.026912,1.8885 0.918395,-0.026 1.065336,0.1027 1.477322,1.2944 0.337317,0.9757 0.771682,1.491 1.653598,1.9617 1.133918,0.6052 1.196741,0.7213 1.208281,2.2343 0.01391,1.8238 0.522298,2.9357 1.620646,3.5445 1.337545,0.7413 2.486831,0.5408 3.667493,-0.6398 z m -2.965607,-1.2289 c -0.142028,-0.2195 -0.33005,-1.471 -0.417828,-2.7812 -0.158127,-2.3603 -0.168668,-2.3841 -1.145035,-2.5824 -1.764174,-0.3584 -1.727694,-0.2101 -1.727694,-7.024 l 0,-6.365 7.341417,0 7.341418,0 0,6.365 c 0,6.8139 0.03648,6.6656 -1.727694,7.024 -0.979727,0.199 -0.986364,0.2143 -1.145035,2.6474 -0.172343,2.6427 -0.517754,3.2978 -1.563829,2.9658 -0.590605,-0.1875 -0.670515,-0.46 -0.670515,-2.2871 0,-2.8812 -0.28888,-3.309 -2.234345,-3.309 -1.943962,0 -2.234344,0.4284 -2.234344,3.2964 0,1.5854 -0.11661,2.1063 -0.504894,2.2553 -0.741242,0.2845 -1.023252,0.2403 -1.311622,-0.2052 z m -7.748015,-9.7942 c -0.181732,-0.3396 -0.330422,-2.2684 -0.330422,-4.2863 0,-2.9098 0.103782,-3.7727 0.501587,-4.1705 0.579345,-0.5793 0.758021,-0.6033 1.413565,-0.1897 0.612534,0.3864 0.891134,7.5568 0.334059,8.5977 -0.447565,0.8363 -1.483235,0.8626 -1.918789,0.049 z m 21.678961,-0.049 c -0.557073,-1.0409 -0.278473,-8.2113 0.33406,-8.5977 0.655544,-0.4136 0.834221,-0.3896 1.413564,0.1897 0.397806,0.3978 0.501588,1.2607 0.501588,4.1705 0,2.0179 -0.148689,3.9467 -0.330421,4.2863 -0.435554,0.8138 -1.471226,0.7875 -1.918791,-0.049 z m -17.082084,-11.9751 c 0.330888,-1.3184 1.122333,-2.319 2.702061,-3.4162 1.399154,-0.9717 1.609059,-1.0193 4.499937,-1.0193 2.890878,0 3.100784,0.048 4.499938,1.0193 1.579728,1.0972 2.371173,2.0978 2.702061,3.4162 l 0.208624,0.8312 -7.410623,0 -7.410623,0 0.208625,-0.8312 z m 4.594224,-0.7245 c 0.241138,-0.1529 0.379034,-0.6678 0.319192,-1.1921 -0.117546,-1.0297 -1.214128,-1.4326 -2.038079,-0.7487 -1.292395,1.0726 0.28283,2.8512 1.718887,1.9408 z m 7.201828,-0.4393 c 0.51344,-0.819 -0.139567,-1.6757 -1.277325,-1.6757 -0.780539,0 -0.939029,0.1423 -1.028146,0.9229 -0.166571,1.4592 1.517884,2.0092 2.305471,0.7528 z"
         id="path2992" />
      <path
         style="fill:#496c8b"
         d="m 0.04332595,1028.4209 0,-23.9394 23.93940305,0 23.939404,0 0,23.9394 0,23.9394 -23.939404,0 -23.93940305,0 0,-23.9394 z m 22.85415005,10.4057 1.085253,-1.0853 1.085253,1.0853 c 1.194254,1.1942 2.222981,1.3716 3.656337,0.6304 1.120445,-0.5794 1.642023,-1.7317 1.643114,-3.6299 7.98e-4,-1.4078 0.07527,-1.5409 1.19697,-2.1395 0.881917,-0.4707 1.31628,-0.986 1.653599,-1.9617 0.411985,-1.1917 0.558925,-1.3205 1.47732,-1.2944 1.253448,0.036 2.61943,-0.8167 3.026911,-1.8885 0.50387,-1.3253 0.382801,-8.9406 -0.158788,-9.9879 -0.487155,-0.9421 -1.610155,-1.5367 -3.19562,-1.692 -0.764631,-0.075 -0.983709,-0.2765 -1.141543,-1.0503 -0.279858,-1.372 -0.862795,-2.3889 -2.129659,-3.7151 -0.941612,-0.9856 -1.056722,-1.2604 -0.760241,-1.8143 0.482115,-0.9009 0.437515,-1.5187 -0.152207,-2.1084 -0.744395,-0.7444 -1.918581,-0.6122 -2.633306,0.2964 -0.588382,0.748 -0.811841,0.798 -3.56814,0.798 -2.756299,0 -2.979758,-0.05 -3.568139,-0.798 -0.714725,-0.9086 -1.888911,-1.0408 -2.633306,-0.2964 -0.589722,0.5897 -0.634322,1.2075 -0.152207,2.1084 0.296481,0.5539 0.181371,0.8287 -0.760241,1.8143 -1.266863,1.3262 -1.849801,2.3431 -2.129658,3.7151 -0.157835,0.7738 -0.376914,0.9754 -1.141543,1.0503 -1.585466,0.1553 -2.708466,0.7499 -3.19562,1.692 -0.5415897,1.0473 -0.6626602,8.6626 -0.158791,9.9879 0.407481,1.0718 1.773465,1.924 3.026912,1.8885 0.918395,-0.026 1.065336,0.1027 1.477322,1.2944 0.337317,0.9757 0.771682,1.491 1.653598,1.9617 1.133918,0.6052 1.196741,0.7213 1.208281,2.2343 0.01391,1.8238 0.522298,2.9357 1.620646,3.5445 1.337545,0.7413 2.486831,0.5408 3.667493,-0.6398 z"
         id="path2990"
         sodipodi:nodetypes="ccccccccccccsssssssssssssssssssssssssssc" />
      <path
         style="fill:#2f577b"
         d="m 0.04332595,1028.4209 0,-23.9394 23.93940305,0 23.939404,0 0,23.9394 0,23.9394 -23.939404,0 -23.93940305,0 0,-23.9394 z m 22.34343005,11.3313 c 0.509223,-0.2633 1.076636,-0.7301 1.260917,-1.0373 0.319103,-0.532 0.35101,-0.532 0.670113,0 0.184281,0.3072 0.751694,0.774 1.260917,1.0373 2.57803,1.3332 5.107059,-0.5293 5.107059,-3.761 0,-1.2659 0.113673,-1.4722 1.196971,-2.1728 0.764359,-0.4943 1.327146,-1.177 1.557146,-1.8888 0.31871,-0.9864 0.513539,-1.1359 1.692139,-1.298 0.847592,-0.1166 1.645212,-0.4961 2.19336,-1.0437 0.835667,-0.8348 0.864586,-0.9866 0.968126,-5.0824 0.06463,-2.5564 -0.03667,-4.7005 -0.256781,-5.4352 -0.425971,-1.4218 -1.874295,-2.4565 -3.440858,-2.4583 -0.861758,-10e-4 -1.037882,-0.1228 -1.040368,-0.7194 -0.0035,-0.844 -1.558417,-3.6584 -2.478936,-4.4868 -0.542366,-0.4882 -0.588211,-0.7162 -0.298394,-1.484 0.274914,-0.7283 0.235179,-1.0709 -0.20154,-1.7374 -0.7139,-1.0895 -1.978397,-1.0903 -3.114515,0 -0.786932,0.7539 -1.099642,0.8284 -3.479383,0.8284 -2.37974,0 -2.69245,-0.074 -3.479382,-0.8284 -1.136118,-1.0885 -2.400615,-1.0877 -3.114515,0 -0.436719,0.6665 -0.476454,1.0091 -0.20154,1.7374 0.289817,0.7678 0.243972,0.9958 -0.298394,1.484 -0.920518,0.8284 -2.475415,3.6428 -2.478935,4.4868 -0.0025,0.5966 -0.178612,0.7184 -1.040369,0.7194 -1.566564,0 -3.014886,1.0365 -3.4408588,2.4583 -0.2201116,0.7347 -0.3214066,2.8788 -0.2567804,5.4352 0.1035405,4.0958 0.1324586,4.2476 0.9681262,5.0824 0.548148,0.5476 1.345767,0.9271 2.193358,1.0437 1.178603,0.1621 1.373432,0.3116 1.69214,1.298 0.230002,0.7118 0.792786,1.3945 1.557147,1.8888 1.083298,0.7006 1.19697,0.9069 1.19697,2.1728 0,3.2396 2.522752,5.0974 5.10706,3.761 z"
         id="path2988"
         sodipodi:nodetypes="ccccccccccssssssssssssssssssssssssssssssc" />
    </g>
    <g
       id="g3113"
       transform="matrix(0.0939177,0,0,0.0939177,3.3939305,1043.6447)"
       style="fill:none;stroke:#ffffff;stroke-width:12;stroke-linecap:square;stroke-opacity:1">
      <path
         id="path3115"
         d="M 30,54 A 24,24 0 0 1 30,6 h 24 v 48"
         style="stroke:#ffffff;stroke-opacity:1" />
      <path
         id="path3117"
         d="M 78,54 V 30 a 24,24 0 0 1 48,0 v 24"
         style="stroke:#ffffff;stroke-opacity:1" />
      <path
         id="path3119"
         d="m 150,54 h 24 a 24,24 0 0 0 0,-48 h -24"
         style="stroke:#ffffff;stroke-opacity:1" />
      <path
         id="path3121"
         d="M 270,54 A 18,18 0 0 0 252,36 m -30,0 h 33 a 15,15 0 0 0 0,-30 h -33"
         style="stroke:#ffffff;stroke-opacity:1" />
      <circle
         id="circle3123"
         cy="30"
         cx="318"
         r="24"
         sodipodi:cx="318"
         sodipodi:cy="30"
         sodipodi:rx="24"
         sodipodi:ry="24"
         d="m 342,30 c 0,13.254834 -10.74517,24 -24,24 -13.25483,0 -24,-10.745166 -24,-24 0,-13.254834 10.74517,-24 24,-24 13.25483,0 24,10.745166 24,24 z"
         style="stroke:#ffffff;stroke-opacity:1" />
      <path
         id="path3125"
         d="M 366,54 V 6"
         style="stroke:#ffffff;stroke-opacity:1" />
      <path
         id="path3127"
         d="m 390,54 h 24 a 24,24 0 0 0 0,-48 h -24"
         style="stroke:#ffffff;stroke-opacity:1" />
    </g>
  </g>
</svg>
